<svg xmlns="http://www.w3.org/2000/svg" xmlns:xlink="http://www.w3.org/1999/xlink" width="60" zoomAndPan="magnify" viewBox="0 0 375 374.999991" height="60" preserveAspectRatio="xMidYMid meet" version="1.0"><defs><clipPath id="9f25c1e8a8"><path d="M 112.5 112.5 L 262.5 112.5 L 262.5 262.5 L 112.5 262.5 Z M 112.5 112.5 " clip-rule="nonzero"/></clipPath></defs><path fill="#336699" d="M 215.625 168.75 C 215.625 169.671875 215.578125 170.589844 215.488281 171.507812 C 215.398438 172.421875 215.265625 173.332031 215.085938 174.238281 C 214.90625 175.140625 214.679688 176.03125 214.414062 176.914062 C 214.148438 177.796875 213.835938 178.660156 213.484375 179.511719 C 213.132812 180.363281 212.738281 181.195312 212.304688 182.007812 C 211.871094 182.820312 211.398438 183.609375 210.886719 184.375 C 210.375 185.140625 209.824219 185.878906 209.242188 186.59375 C 208.65625 187.304688 208.039062 187.984375 207.386719 188.636719 C 206.734375 189.289062 206.054688 189.90625 205.34375 190.492188 C 204.628906 191.074219 203.890625 191.625 203.125 192.136719 C 202.359375 192.648438 201.570312 193.121094 200.757812 193.554688 C 199.945312 193.988281 199.113281 194.382812 198.261719 194.734375 C 197.410156 195.085938 196.546875 195.398438 195.664062 195.664062 C 194.78125 195.929688 193.890625 196.15625 192.988281 196.335938 C 192.082031 196.515625 191.171875 196.648438 190.257812 196.738281 C 189.339844 196.828125 188.421875 196.875 187.5 196.875 C 186.578125 196.875 185.660156 196.828125 184.742188 196.738281 C 183.828125 196.648438 182.917969 196.515625 182.011719 196.335938 C 181.109375 196.15625 180.21875 195.929688 179.335938 195.664062 C 178.453125 195.398438 177.589844 195.085938 176.738281 194.734375 C 175.886719 194.382812 175.054688 193.988281 174.242188 193.554688 C 173.429688 193.121094 172.640625 192.648438 171.875 192.136719 C 171.109375 191.625 170.371094 191.074219 169.65625 190.492188 C 168.945312 189.90625 168.265625 189.289062 167.613281 188.636719 C 166.960938 187.984375 166.34375 187.304688 165.757812 186.59375 C 165.175781 185.878906 164.625 185.140625 164.113281 184.375 C 163.601562 183.609375 163.128906 182.820312 162.695312 182.007812 C 162.261719 181.195312 161.867188 180.363281 161.515625 179.511719 C 161.164062 178.660156 160.851562 177.796875 160.585938 176.914062 C 160.320312 176.03125 160.09375 175.140625 159.914062 174.238281 C 159.734375 173.332031 159.601562 172.421875 159.511719 171.507812 C 159.421875 170.589844 159.375 169.671875 159.375 168.75 C 159.375 167.828125 159.421875 166.910156 159.511719 165.992188 C 159.601562 165.078125 159.734375 164.167969 159.914062 163.261719 C 160.09375 162.359375 160.320312 161.46875 160.585938 160.585938 C 160.851562 159.703125 161.164062 158.839844 161.515625 157.988281 C 161.867188 157.136719 162.261719 156.304688 162.695312 155.492188 C 163.128906 154.679688 163.601562 153.890625 164.113281 153.125 C 164.625 152.359375 165.175781 151.621094 165.757812 150.90625 C 166.34375 150.195312 166.960938 149.515625 167.613281 148.863281 C 168.265625 148.210938 168.945312 147.59375 169.65625 147.007812 C 170.371094 146.425781 171.109375 145.875 171.875 145.363281 C 172.640625 144.851562 173.429688 144.378906 174.242188 143.945312 C 175.054688 143.511719 175.886719 143.117188 176.738281 142.765625 C 177.589844 142.414062 178.453125 142.101562 179.335938 141.835938 C 180.21875 141.570312 181.109375 141.34375 182.011719 141.164062 C 182.917969 140.984375 183.828125 140.851562 184.742188 140.761719 C 185.660156 140.671875 186.578125 140.625 187.5 140.625 C 188.421875 140.625 189.339844 140.671875 190.257812 140.761719 C 191.171875 140.851562 192.082031 140.984375 192.988281 141.164062 C 193.890625 141.34375 194.78125 141.570312 195.664062 141.835938 C 196.546875 142.101562 197.410156 142.414062 198.261719 142.765625 C 199.113281 143.117188 199.945312 143.511719 200.757812 143.945312 C 201.570312 144.378906 202.359375 144.851562 203.125 145.363281 C 203.890625 145.875 204.628906 146.425781 205.34375 147.007812 C 206.054688 147.59375 206.734375 148.210938 207.386719 148.863281 C 208.039062 149.515625 208.65625 150.195312 209.242188 150.90625 C 209.824219 151.621094 210.375 152.359375 210.886719 153.125 C 211.398438 153.890625 211.871094 154.679688 212.304688 155.492188 C 212.738281 156.304688 213.132812 157.136719 213.484375 157.988281 C 213.835938 158.839844 214.148438 159.703125 214.414062 160.585938 C 214.679688 161.46875 214.90625 162.359375 215.085938 163.261719 C 215.265625 164.167969 215.398438 165.078125 215.488281 165.992188 C 215.578125 166.910156 215.625 167.828125 215.625 168.75 Z M 215.625 168.75 " fill-opacity="1" fill-rule="nonzero"/><g clip-path="url(#9f25c1e8a8)"><path fill="#336699" d="M 112.5 187.5 C 112.5 186.273438 112.53125 185.046875 112.589844 183.820312 C 112.652344 182.59375 112.742188 181.371094 112.859375 180.148438 C 112.980469 178.925781 113.132812 177.710938 113.3125 176.496094 C 113.492188 175.28125 113.703125 174.070312 113.941406 172.867188 C 114.179688 171.664062 114.449219 170.46875 114.746094 169.277344 C 115.046875 168.085938 115.375 166.902344 115.730469 165.730469 C 116.085938 164.554688 116.46875 163.390625 116.882812 162.234375 C 117.296875 161.078125 117.738281 159.933594 118.210938 158.796875 C 118.679688 157.664062 119.175781 156.542969 119.699219 155.433594 C 120.226562 154.324219 120.777344 153.226562 121.355469 152.144531 C 121.933594 151.0625 122.539062 149.996094 123.171875 148.941406 C 123.800781 147.890625 124.457031 146.851562 125.140625 145.832031 C 125.820312 144.8125 126.527344 143.808594 127.257812 142.824219 C 127.992188 141.835938 128.746094 140.871094 129.523438 139.921875 C 130.304688 138.972656 131.105469 138.042969 131.929688 137.132812 C 132.753906 136.222656 133.597656 135.335938 134.46875 134.46875 C 135.335938 133.597656 136.222656 132.753906 137.132812 131.929688 C 138.042969 131.105469 138.972656 130.304688 139.921875 129.523438 C 140.871094 128.746094 141.835938 127.992188 142.824219 127.257812 C 143.808594 126.527344 144.8125 125.820312 145.832031 125.140625 C 146.851562 124.457031 147.890625 123.800781 148.941406 123.171875 C 149.996094 122.539062 151.0625 121.933594 152.144531 121.355469 C 153.226562 120.777344 154.324219 120.226562 155.433594 119.699219 C 156.542969 119.175781 157.664062 118.679688 158.796875 118.210938 C 159.933594 117.738281 161.078125 117.296875 162.234375 116.882812 C 163.390625 116.46875 164.554688 116.085938 165.730469 115.730469 C 166.902344 115.375 168.085938 115.046875 169.277344 114.746094 C 170.46875 114.449219 171.664062 114.179688 172.867188 113.941406 C 174.070312 113.703125 175.28125 113.492188 176.496094 113.3125 C 177.710938 113.132812 178.925781 112.980469 180.148438 112.859375 C 181.371094 112.742188 182.59375 112.652344 183.820312 112.589844 C 185.046875 112.53125 186.273438 112.5 187.5 112.5 C 188.726562 112.5 189.953125 112.53125 191.179688 112.589844 C 192.40625 112.652344 193.628906 112.742188 194.851562 112.859375 C 196.074219 112.980469 197.289062 113.132812 198.503906 113.3125 C 199.71875 113.492188 200.929688 113.703125 202.132812 113.941406 C 203.335938 114.179688 204.53125 114.449219 205.722656 114.746094 C 206.914062 115.046875 208.097656 115.375 209.269531 115.730469 C 210.445312 116.085938 211.609375 116.46875 212.765625 116.882812 C 213.921875 117.296875 215.066406 117.738281 216.203125 118.210938 C 217.335938 118.679688 218.457031 119.175781 219.566406 119.699219 C 220.675781 120.226562 221.773438 120.777344 222.855469 121.355469 C 223.9375 121.933594 225.003906 122.539062 226.058594 123.171875 C 227.109375 123.800781 228.148438 124.457031 229.167969 125.140625 C 230.1875 125.820312 231.191406 126.527344 232.175781 127.257812 C 233.164062 127.992188 234.128906 128.746094 235.078125 129.523438 C 236.027344 130.304688 236.957031 131.105469 237.867188 131.929688 C 238.777344 132.753906 239.664062 133.597656 240.53125 134.46875 C 241.402344 135.335938 242.246094 136.222656 243.070312 137.132812 C 243.894531 138.042969 244.695312 138.972656 245.476562 139.921875 C 246.253906 140.871094 247.007812 141.835938 247.742188 142.824219 C 248.472656 143.808594 249.179688 144.8125 249.859375 145.832031 C 250.542969 146.851562 251.199219 147.890625 251.828125 148.941406 C 252.460938 149.996094 253.066406 151.0625 253.644531 152.144531 C 254.222656 153.226562 254.773438 154.324219 255.300781 155.433594 C 255.824219 156.542969 256.320312 157.664062 256.789062 158.796875 C 257.261719 159.933594 257.703125 161.078125 258.117188 162.234375 C 258.527344 163.390625 258.914062 164.554688 259.269531 165.730469 C 259.625 166.902344 259.953125 168.085938 260.253906 169.277344 C 260.550781 170.46875 260.820312 171.664062 261.058594 172.867188 C 261.296875 174.070312 261.507812 175.28125 261.6875 176.496094 C 261.867188 177.710938 262.019531 178.925781 262.140625 180.148438 C 262.257812 181.371094 262.347656 182.59375 262.410156 183.820312 C 262.46875 185.046875 262.5 186.273438 262.5 187.5 C 262.5 188.726562 262.46875 189.953125 262.410156 191.179688 C 262.347656 192.40625 262.257812 193.628906 262.140625 194.851562 C 262.019531 196.074219 261.867188 197.289062 261.6875 198.503906 C 261.507812 199.71875 261.296875 200.929688 261.058594 202.132812 C 260.820312 203.335938 260.550781 204.53125 260.253906 205.722656 C 259.953125 206.914062 259.625 208.097656 259.269531 209.269531 C 258.914062 210.445312 258.527344 211.609375 258.117188 212.765625 C 257.703125 213.921875 257.261719 215.066406 256.789062 216.203125 C 256.320312 217.335938 255.824219 218.457031 255.300781 219.566406 C 254.773438 220.675781 254.222656 221.773438 253.644531 222.855469 C 253.066406 223.9375 252.460938 225.003906 251.828125 226.058594 C 251.199219 227.109375 250.542969 228.148438 249.859375 229.167969 C 249.179688 230.1875 248.472656 231.191406 247.742188 232.175781 C 247.007812 233.164062 246.253906 234.128906 245.476562 235.078125 C 244.695312 236.027344 243.894531 236.957031 243.070312 237.867188 C 242.246094 238.777344 241.402344 239.664062 240.53125 240.53125 C 239.664062 241.402344 238.777344 242.246094 237.867188 243.070312 C 236.957031 243.894531 236.027344 244.695312 235.078125 245.476562 C 234.128906 246.253906 233.164062 247.007812 232.175781 247.742188 C 231.191406 248.472656 230.1875 249.179688 229.167969 249.859375 C 228.148438 250.542969 227.109375 251.199219 226.058594 251.828125 C 225.003906 252.460938 223.9375 253.066406 222.855469 253.644531 C 221.773438 254.222656 220.675781 254.773438 219.566406 255.300781 C 218.457031 255.824219 217.335938 256.320312 216.203125 256.789062 C 215.066406 257.261719 213.921875 257.703125 212.765625 258.117188 C 211.609375 258.527344 210.445312 258.914062 209.269531 259.269531 C 208.097656 259.625 206.914062 259.953125 205.722656 260.253906 C 204.53125 260.550781 203.335938 260.820312 202.132812 261.058594 C 200.929688 261.296875 199.71875 261.507812 198.503906 261.6875 C 197.289062 261.867188 196.074219 262.019531 194.851562 262.140625 C 193.628906 262.257812 192.40625 262.347656 191.179688 262.410156 C 189.953125 262.46875 188.726562 262.5 187.5 262.5 C 186.273438 262.5 185.046875 262.46875 183.820312 262.410156 C 182.59375 262.347656 181.371094 262.257812 180.148438 262.140625 C 178.925781 262.019531 177.710938 261.867188 176.496094 261.6875 C 175.28125 261.507812 174.070312 261.296875 172.867188 261.058594 C 171.664062 260.820312 170.46875 260.550781 169.277344 260.253906 C 168.085938 259.953125 166.902344 259.625 165.730469 259.269531 C 164.554688 258.914062 163.390625 258.527344 162.234375 258.117188 C 161.078125 257.703125 159.933594 257.261719 158.796875 256.789062 C 157.664062 256.320312 156.542969 255.824219 155.433594 255.300781 C 154.324219 254.773438 153.226562 254.222656 152.144531 253.644531 C 151.0625 253.066406 149.996094 252.460938 148.941406 251.828125 C 147.890625 251.199219 146.851562 250.542969 145.832031 249.859375 C 144.8125 249.179688 143.808594 248.472656 142.824219 247.742188 C 141.835938 247.007812 140.871094 246.253906 139.921875 245.476562 C 138.972656 244.695312 138.042969 243.894531 137.132812 243.070312 C 136.222656 242.246094 135.335938 241.402344 134.46875 240.53125 C 133.597656 239.664062 132.753906 238.777344 131.929688 237.867188 C 131.105469 236.957031 130.304688 236.027344 129.523438 235.078125 C 128.746094 234.128906 127.992188 233.164062 127.257812 232.175781 C 126.527344 231.191406 125.820312 230.1875 125.140625 229.167969 C 124.457031 228.148438 123.800781 227.109375 123.171875 226.058594 C 122.539062 225.003906 121.933594 223.9375 121.355469 222.855469 C 120.777344 221.773438 120.226562 220.675781 119.699219 219.566406 C 119.175781 218.457031 118.679688 217.335938 118.210938 216.203125 C 117.738281 215.066406 117.296875 213.921875 116.882812 212.765625 C 116.46875 211.609375 116.085938 210.445312 115.730469 209.269531 C 115.375 208.097656 115.046875 206.914062 114.746094 205.722656 C 114.449219 204.53125 114.179688 203.335938 113.941406 202.132812 C 113.703125 200.929688 113.492188 199.71875 113.3125 198.503906 C 113.132812 197.289062 112.980469 196.074219 112.859375 194.851562 C 112.742188 193.628906 112.652344 192.40625 112.589844 191.179688 C 112.53125 189.953125 112.5 188.726562 112.5 187.5 Z M 187.5 121.875 C 184.425781 121.875 181.367188 122.089844 178.324219 122.519531 C 175.277344 122.949219 172.277344 123.589844 169.324219 124.441406 C 166.371094 125.292969 163.492188 126.347656 160.683594 127.605469 C 157.878906 128.859375 155.175781 130.308594 152.574219 131.945312 C 149.96875 133.582031 147.496094 135.390625 145.144531 137.375 C 142.796875 139.359375 140.601562 141.5 138.550781 143.792969 C 136.503906 146.085938 134.628906 148.507812 132.921875 151.066406 C 131.214844 153.625 129.695312 156.289062 128.363281 159.058594 C 127.03125 161.828125 125.898438 164.679688 124.964844 167.609375 C 124.035156 170.539062 123.3125 173.519531 122.796875 176.550781 C 122.285156 179.582031 121.988281 182.632812 121.902344 185.707031 C 121.820312 188.78125 121.949219 191.84375 122.296875 194.898438 C 122.644531 197.953125 123.203125 200.96875 123.972656 203.945312 C 124.742188 206.921875 125.71875 209.828125 126.894531 212.667969 C 128.074219 215.507812 129.449219 218.25 131.011719 220.898438 C 132.578125 223.542969 134.316406 226.066406 136.238281 228.46875 C 142.894531 217.742188 157.546875 206.25 187.5 206.25 C 217.453125 206.25 232.097656 217.734375 238.761719 228.46875 C 240.683594 226.066406 242.421875 223.542969 243.988281 220.898438 C 245.550781 218.25 246.925781 215.507812 248.105469 212.667969 C 249.28125 209.828125 250.257812 206.921875 251.027344 203.945312 C 251.796875 200.96875 252.355469 197.953125 252.703125 194.898438 C 253.050781 191.84375 253.179688 188.78125 253.097656 185.707031 C 253.011719 182.632812 252.714844 179.582031 252.203125 176.550781 C 251.6875 173.519531 250.964844 170.539062 250.035156 167.609375 C 249.101562 164.679688 247.96875 161.828125 246.636719 159.058594 C 245.304688 156.289062 243.785156 153.625 242.078125 151.066406 C 240.371094 148.507812 238.496094 146.085938 236.449219 143.792969 C 234.398438 141.5 232.203125 139.359375 229.855469 137.375 C 227.503906 135.390625 225.03125 133.582031 222.425781 131.945312 C 219.824219 130.308594 217.121094 128.859375 214.316406 127.605469 C 211.507812 126.347656 208.628906 125.292969 205.675781 124.441406 C 202.722656 123.589844 199.722656 122.949219 196.675781 122.519531 C 193.632812 122.089844 190.574219 121.875 187.5 121.875 Z M 187.5 121.875 " fill-opacity="1" fill-rule="evenodd"/></g></svg>